<svg width="145" height="30" viewBox="0 0 295 47" fill="none" xmlns="http://www.w3.org/2000/svg">
    <path shape-rendering="geometricPrecision" d="M17.328 46.768C14.0427 46.768 11.1627 46.192 8.688 45.04C6.21333 43.888 4.272 42.2453 2.864 40.112C1.49867 37.9787 0.794667 35.44 0.752 32.496H7.92C7.96267 34.8853 8.79467 36.912 10.416 38.576C12.0373 40.24 14.32 41.072 17.264 41.072C19.8667 41.072 21.8933 40.4533 23.344 39.216C24.8373 37.936 25.584 36.3147 25.584 34.352C25.584 32.7733 25.2213 31.4933 24.496 30.512C23.8133 29.5307 22.8533 28.72 21.616 28.08C20.4213 27.44 19.0347 26.864 17.456 26.352C15.8773 25.84 14.2133 25.2853 12.464 24.688C9.008 23.536 6.40533 22.0427 4.656 20.208C2.94933 18.3733 2.096 15.9627 2.096 12.976C2.05333 10.4587 2.62933 8.26133 3.824 6.384C5.06133 4.50666 6.768 3.056 8.944 2.032C11.1627 0.965332 13.744 0.431999 16.688 0.431999C19.5893 0.431999 22.128 0.965332 24.304 2.032C26.5227 3.09866 28.2507 4.592 29.488 6.512C30.7253 8.38933 31.3653 10.5867 31.408 13.104H24.24C24.24 11.952 23.9413 10.864 23.344 9.84C22.7467 8.77333 21.872 7.89867 20.72 7.216C19.568 6.53333 18.16 6.192 16.496 6.192C14.3627 6.14933 12.592 6.68267 11.184 7.792C9.81867 8.90133 9.136 10.4373 9.136 12.4C9.136 14.1493 9.648 15.4933 10.672 16.432C11.696 17.3707 13.104 18.16 14.896 18.8C16.688 19.3973 18.736 20.1013 21.04 20.912C23.2587 21.6373 25.2427 22.512 26.992 23.536C28.7413 24.56 30.128 25.904 31.152 27.568C32.2187 29.232 32.752 31.344 32.752 33.904C32.752 36.1653 32.176 38.2773 31.024 40.24C29.872 42.16 28.144 43.7387 25.84 44.976C23.536 46.1707 20.6987 46.768 17.328 46.768ZM52.3485 46.064L40.2525 1.2H47.5485L56.4445 38.32L66.6845 1.2H74.1725L84.0925 38.32L92.9885 1.2H100.285L87.9965 46H80.0605L70.2685 10.864L60.1565 46L52.3485 46.064ZM102.969 46L119.481 1.2H126.905L143.289 46H136.121L132.281 35.056H113.977L110.137 46H102.969ZM115.897 29.68H130.361L123.129 9.264L115.897 29.68ZM153.377 46V1.2H160.161L182.625 34.928V1.2H189.409V46H182.625L160.161 12.272V46H153.377ZM202.342 46V1.2H209.126V20.4L226.79 1.2H235.174L218.598 19.056L235.558 46H227.302L213.734 24.24L209.126 29.232V46H202.342ZM256.698 46V29.488L241.85 1.2H249.53L260.09 22.832L270.586 1.2H278.202L263.482 29.488V46H256.698Z" fill="black"/>
    <path shape-rendering="geometricPrecision" d="M290.079 46.384C288.799 46.384 287.732 45.9787 286.879 45.168C286.068 44.3147 285.663 43.312 285.663 42.16C285.663 40.9653 286.068 39.9627 286.879 39.152C287.732 38.2987 288.799 37.872 290.079 37.872C291.359 37.872 292.404 38.2987 293.215 39.152C294.025 39.9627 294.431 40.9653 294.431 42.16C294.431 43.312 294.025 44.3147 293.215 45.168C292.404 45.9787 291.359 46.384 290.079 46.384Z" fill="#EC6C5A"/>
</svg>
